<?xml version="1.0" encoding="UTF-8" standalone="no"?>
<!-- Created with Inkscape (http://www.inkscape.org/) -->

<svg
   xmlns:dc="http://purl.org/dc/elements/1.1/"
   xmlns:cc="http://creativecommons.org/ns#"
   xmlns:rdf="http://www.w3.org/1999/02/22-rdf-syntax-ns#"
   xmlns:svg="http://www.w3.org/2000/svg"
   xmlns="http://www.w3.org/2000/svg"
   xmlns:sodipodi="http://sodipodi.sourceforge.net/DTD/sodipodi-0.dtd"
   xmlns:inkscape="http://www.inkscape.org/namespaces/inkscape"
   width="510"
   height="510"
   viewBox="0 0 510 510"
   id="svg2"
   version="1.1"
   inkscape:version="0.91 r13725"
   sodipodi:docname="logo.svg">
  <defs
     id="defs4" />
  <sodipodi:namedview
     id="base"
     pagecolor="#ffffff"
     bordercolor="#666666"
     borderopacity="1.0"
     inkscape:pageopacity="0.0"
     inkscape:pageshadow="2"
     inkscape:zoom="1.4529412"
     inkscape:cx="255"
     inkscape:cy="255"
     inkscape:document-units="px"
     inkscape:current-layer="layer1"
     showgrid="true"
     units="px"
     fit-margin-top="0"
     fit-margin-left="0"
     fit-margin-right="0"
     fit-margin-bottom="0">
    <inkscape:grid
       type="xygrid"
       id="grid4201"
       originx="-166"
       originy="-347.99998" />
  </sodipodi:namedview>
  <metadata
     id="metadata7">
    <rdf:RDF>
      <cc:Work
         rdf:about="">
        <dc:format>image/svg+xml</dc:format>
        <dc:type
           rdf:resource="http://purl.org/dc/dcmitype/StillImage" />
        <dc:title></dc:title>
      </cc:Work>
    </rdf:RDF>
  </metadata>
  <g
     inkscape:label="Layer 1"
     inkscape:groupmode="layer"
     id="layer1"
     transform="translate(-166,-194.36215)">
    <circle
       style="opacity:1;fill:#f4f0ed;fill-opacity:1;stroke:none;stroke-width:1;stroke-linecap:round;stroke-linejoin:round;stroke-miterlimit:4;stroke-dasharray:none;stroke-dashoffset:0;stroke-opacity:1"
       id="path4303"
       cx="421"
       cy="449.36215"
       r="255" />
    <path
       style="opacity:1;fill:#cddbc5;fill-opacity:1;stroke:none;stroke-width:1;stroke-linecap:round;stroke-linejoin:round;stroke-miterlimit:4;stroke-dasharray:none;stroke-dashoffset:0;stroke-opacity:1"
       d="m 676,449.36215 c 0,140.83261 -114.16739,255 -255,255 -140.83261,0 -255,-114.16739 -255,-255 84,0 103.16739,0 244,0 140.83261,0 140,0 266,0 z"
       id="circle4305"
       inkscape:connector-curvature="0"
       sodipodi:nodetypes="cscsc" />
    <path
       style="opacity:1;fill:#549dd7;fill-opacity:1;stroke:none;stroke-width:1;stroke-linecap:round;stroke-linejoin:round;stroke-miterlimit:4;stroke-dasharray:none;stroke-dashoffset:0;stroke-opacity:1"
       d="m 286,508.36215 c 0,0 73.43349,-22.68816 96,0 -2,44.00001 -12,154.00001 -1,186 -21,8.00001 -69.37258,-8.37258 -92,-31 -55.15433,-55.15433 -3,-155 -3,-155 z"
       id="rect4300"
       inkscape:connector-curvature="0"
       sodipodi:nodetypes="cccsc" />
    <path
       style="fill:#cddbc5;fill-opacity:1"
       d="m 374.16187,698.91732 c -6.84999,-0.51746 -12.6993,-1.73494 -16.47194,-3.4285 -5.63493,-2.52956 -10.47639,-7.46611 -12.3767,-12.61979 -2.69653,-7.31308 -2.5982,-18.63341 0.23221,-26.73126 1.32203,-3.78233 6.49846,-11.34876 10.13021,-14.8074 4.39594,-4.18641 10.77736,-11.17191 12.8994,-14.1205 3.29177,-4.57393 5.23206,-9.5224 6.25025,-15.94043 0.43993,-2.77308 0.37213,-4.0962 -0.4495,-8.77237 -0.88313,-5.02606 -1.15516,-5.85088 -3.11686,-9.44927 -2.22152,-4.07501 -5.68977,-8.83566 -9.31613,-12.78768 -4.67185,-5.09141 -5.94051,-6.56525 -8.46766,-9.8371 -3.30405,-4.27772 -5.5055,-9.1281 -6.38688,-14.072 -2.18734,-12.26918 23.10295,-47.14246 32.7655,-50.2374 4.41985,-1.41569 13.71417,6.89186 18.9221,3.76951 C 428,492.36216 400,522.36216 384.13138,530.48119 c 0.50089,-0.0859 42.24664,-11.60488 45.66382,-10.50901 4.73157,1.51739 -22.59601,18.49864 -18.26567,21.14128 14.59722,8.90812 22.66623,21.83169 22.59541,36.18948 -0.0443,8.98266 -0.64772,13.64959 -2.62578,20.30811 -2.08169,7.00746 -4.74838,12.44415 -13.1662,26.84249 -3.00062,5.13244 -6.26929,10.85826 -7.26371,12.72405 -5.25088,9.85205 -8.57795,19.66981 -10.15773,29.97423 -1.19497,7.79446 -1.85361,10.31191 -3.93924,15.05653 -2.72669,6.20302 -6.92904,10.83556 -12.62465,13.91706 -2.59706,1.40509 -8.20305,2.94169 -10.18576,2.79191 z"
       id="path4284"
       inkscape:connector-curvature="0"
       sodipodi:nodetypes="sssssssssssssscssssssssss" />
    <path
       style="fill:#656565;fill-opacity:1;fill-rule:evenodd;stroke:none;stroke-width:1px;stroke-linecap:butt;stroke-linejoin:miter;stroke-opacity:1"
       d="M 213,507.49478 375.59578,282.36216 525.68419,507.49478 Z"
       id="path4268"
       inkscape:connector-curvature="0" />
    <path
       id="path4272"
       style="fill:#cddbc5;fill-opacity:1"
       d="m 328.65414,454.25594 c -1.82529,-1.2834 -2.32562,-2.00038 -3.2166,-4.60942 -1.01198,-2.96332 -0.7709,-6.28522 0.79679,-10.97931 1.4654,-4.38778 3.47997,-7.14405 6.82337,-9.33548 3.12571,-2.04875 7.41429,-1.74718 9.69122,0.68149 3.10159,3.30827 3.50003,10.56192 0.88683,16.14452 -2.44102,5.21475 -6.80674,9.03311 -10.67282,9.33467 -2.00669,0.15653 -2.54894,9.2e-4 -4.30879,-1.23648 z m 25.51261,9.63881 c -4.70494,-3.93437 -5.68706,-13.39053 -2.23343,-21.50414 2.69441,-6.32995 6.15464,-10.67437 10.49053,-13.17113 7.70023,-4.43405 14.82871,-1.35559 16.51858,7.13362 0.77164,3.87638 0.5482,6.54937 -1.00485,12.02065 -1.26288,4.44911 -1.76118,5.59544 -3.60132,8.28518 -4.96368,7.25547 -11.04528,10.61311 -16.49211,9.10527 -1.18544,-0.32817 -2.84028,-1.16942 -3.6774,-1.86945 z m -48.47733,-13.12826 c -0.64485,-0.76326 -1.43464,-2.66668 -1.7949,-4.32576 -0.5884,-2.70961 -0.54778,-3.31298 0.47541,-7.06204 0.93057,-3.40952 1.39643,-4.433 2.76889,-6.08244 8.08315,-9.71447 16.79816,1.91272 10.36806,13.83259 -1.38521,2.56785 -1.96031,3.1839 -4.21754,4.51777 -2.35895,1.39399 -2.80045,1.49276 -4.53099,1.01369 -1.28026,-0.35441 -2.30002,-0.9837 -3.06893,-1.89381 z m -14.27666,3.49383 c -2.33562,-1.61939 -3.47103,-4.62535 -3.37048,-8.92321 0.0424,-1.81066 0.29427,-2.57492 1.5456,-4.68912 2.52909,-4.27306 5.68498,-5.09309 8.7327,-2.26909 4.30303,3.98716 2.15308,14.98747 -3.22878,16.52016 -1.86483,0.53109 -2.03424,0.50168 -3.67904,-0.63874 z m -14.34406,6.31393 c -3.80717,-4.24616 0.89164,-14.30484 6.01927,-12.88536 1.93091,0.53453 2.79531,2.16493 3.12401,5.89241 l 0.23204,2.63127 -1.87651,2.38955 c -3.09658,3.94322 -5.22874,4.50395 -7.49881,1.97213 z m -3.16113,168.50314 c -2.65404,-1.32719 -6.83892,-5.12818 -8.82695,-8.01726 -3.27807,-4.76378 -4.93271,-10.69269 -4.91855,-17.62413 0.008,-3.95642 0.29754,-5.90108 2.21469,-14.87908 0.77307,-3.62025 1.4469,-7.50625 1.49742,-8.63555 0.32285,-7.21724 0.35071,-8.85499 0.20797,-12.23146 -0.20801,-4.92061 -1.10004,-12.46797 -2.29672,-19.43211 -0.88863,-5.17145 -1.6601,-10.4388 -2.69219,-18.38134 -1.36074,-10.47162 -0.90682,-17.44849 1.7648,-27.1258 2.25122,-8.15466 4.06411,-12.17277 7.68507,-17.03362 8.25143,-11.07692 22.93974,-17.36692 41.60255,-17.81556 9.33141,-0.22432 22.21002,1.69456 28.95793,4.31466 7.85884,3.05144 11.15032,5.1557 13.99089,8.94441 7.07348,9.43448 2.52672,26.39115 -9.27197,34.57881 -3.29856,2.28902 -3.60951,2.46547 -14.95853,8.48886 -8.24959,4.37839 -11.36149,6.56401 -15.02226,10.55079 -4.03528,4.39462 -5.11904,6.39827 -6.89793,12.75289 -2.94449,10.51844 -2.17698,14.97622 5.79015,33.62953 3.21666,7.53109 4.24966,10.82897 4.69456,14.98746 0.39351,3.67813 0.35071,4.70766 -0.39099,9.40595 -0.63434,4.01812 -3.12812,11.03407 -5.23961,14.74103 -4.29804,7.54564 -11.68344,12.13695 -19.68839,12.23978 -6.57756,0.0845 -13.89907,-1.30655 -18.20194,-3.45826 z"
       inkscape:connector-curvature="0" />
    <path
       inkscape:connector-curvature="0"
       id="path4308"
       d="m 428.40692,507.49478 94.71067,-131.13785 87.42525,131.13785 z"
       style="fill:#656565;fill-opacity:1;fill-rule:evenodd;stroke:none;stroke-width:1px;stroke-linecap:butt;stroke-linejoin:miter;stroke-opacity:1" />
  </g>
</svg>
